<svg width="400" height="400" viewBox="0 0 400 400" fill="none" xmlns="http://www.w3.org/2000/svg">
  <rect width="400" height="400" fill="#F3F4F6"/>
  <path d="M200 150C183.431 150 170 163.431 170 180C170 196.569 183.431 210 200 210C216.569 210 230 196.569 230 180C230 163.431 216.569 150 200 150ZM200 200C189.028 200 180 190.972 180 180C180 169.028 189.028 160 200 160C210.972 160 220 169.028 220 180C220 190.972 210.972 200 200 200Z" fill="#9CA3AF"/>
  <path d="M120 100H280C291.046 100 300 108.954 300 120V280C300 291.046 291.046 300 280 300H120C108.954 300 100 291.046 100 280V120C100 108.954 108.954 100 120 100ZM120 110C114.477 110 110 114.477 110 120V280C110 285.523 114.477 290 120 290H280C285.523 290 290 285.523 290 280V120C290 114.477 285.523 110 280 110H120Z" fill="#9CA3AF"/>
  <text x="200" y="250" text-anchor="middle" font-family="system-ui" font-size="24" fill="#6B7280">Image Not Found</text>
</svg> 